<?xml version="1.0" standalone="no"?>
<!DOCTYPE svg PUBLIC "-//W3C//DTD SVG 20010904//EN"
 "http://www.w3.org/TR/2001/REC-SVG-20010904/DTD/svg10.dtd">
<svg version="1.0" xmlns="http://www.w3.org/2000/svg"
 width="508.000000pt" height="892.000000pt" viewBox="0 0 508.000000 892.000000"
 preserveAspectRatio="xMidYMid meet">
<metadata>
Created by potrace 1.16, written by Peter Selinger 2001-2019
</metadata>
<g transform="translate(0.000000,892.000000) scale(0.100000,-0.100000)"
fill="#000000" stroke="none">
<path d="M0 4460 l0 -4460 2540 0 2540 0 0 4460 0 4460 -2540 0 -2540 0 0
-4460z m5060 -10 l0 -4420 -2525 0 -2525 0 0 915 0 915 129 -1 c101 0 136 3
161 16 43 22 102 83 123 128 17 35 18 145 17 2025 l0 1987 -35 35 -35 35 -180
0 -180 0 0 1393 0 1392 2525 0 2525 0 0 -4420z m-4777 463 c29 -6 38 -26 10
-22 -10 1 -26 -1 -36 -6 -9 -4 -29 -5 -43 -2 -22 4 -24 3 -12 -10 11 -11 24
-12 55 -5 l41 9 -5 -41 c-7 -64 -9 -66 -57 -66 -51 0 -106 17 -89 28 6 4 14
22 18 40 5 27 4 32 -12 33 -14 0 -12 3 7 11 24 10 24 10 5 18 -17 8 -18 9 -2
11 33 3 35 4 43 12 5 5 18 5 29 2 11 -4 32 -9 48 -12z"/>
<path d="M1447 8363 c-4 -3 -7 -57 -7 -120 l0 -113 80 0 c71 0 80 2 80 18 0
16 -7 18 -60 14 l-60 -4 0 41 0 41 45 0 c33 0 45 4 45 15 0 11 -12 15 -45 15
-43 0 -45 1 -45 29 0 24 5 29 31 35 17 3 42 3 55 0 20 -5 24 -2 24 15 0 19 -5
21 -68 21 -38 0 -72 -3 -75 -7z"/>
<path d="M2370 8342 c0 -16 -3 -70 -6 -120 l-7 -92 24 0 c23 0 25 3 25 56 0
60 11 76 54 72 23 -3 25 -8 30 -68 4 -49 9 -65 20 -65 12 0 14 13 11 70 -4 96
-34 125 -93 94 -20 -11 -21 -10 -15 35 6 44 6 46 -18 46 -21 0 -25 -5 -25 -28z"/>
<path d="M3354 8248 c1 -88 4 -122 14 -125 8 -3 12 7 12 30 0 63 11 94 37 106
39 18 53 -1 53 -70 0 -43 4 -59 14 -59 16 0 30 85 20 124 -8 31 -54 52 -82 37
-31 -16 -32 -15 -32 34 0 37 -3 45 -18 45 -17 0 -18 -11 -18 -122z"/>
<path d="M1837 8274 c-67 -67 5 -135 93 -89 22 11 30 23 30 42 0 14 8 32 17
39 24 17 18 20 -53 28 -57 6 -62 5 -87 -20z"/>
<path d="M2868 8273 c-40 -42 -41 -81 -3 -118 30 -30 74 -32 106 -5 l24 20
-46 -6 c-35 -5 -49 -2 -62 11 -28 27 -20 34 40 37 67 3 80 23 42 64 -30 32
-69 31 -101 -3z"/>
<path d="M3571 8274 c-39 -32 -41 -71 -5 -113 32 -38 90 -43 119 -11 17 19 17
19 -31 14 -41 -5 -52 -3 -68 15 -23 25 -15 29 64 33 49 3 55 5 52 23 -4 28
-48 65 -77 65 -13 0 -37 -12 -54 -26z"/>
<path d="M3029 8273 c-13 -15 -10 -16 27 -10 29 5 45 3 53 -6 13 -16 5 -27
-21 -27 -31 0 -78 -29 -78 -49 0 -33 31 -48 97 -48 34 0 60 4 57 9 -3 5 -8 35
-9 66 -3 39 -9 60 -21 69 -26 19 -89 16 -105 -4z"/>
<path d="M1340 7638 c-123 -13 -248 -75 -325 -159 -56 -61 -79 -101 -111 -194
-27 -79 -28 -82 -25 -314 1 -195 -1 -237 -14 -257 -18 -27 -22 -234 -5 -234 6
0 10 -25 10 -55 0 -30 -4 -55 -10 -55 -13 0 -14 -357 -1 -364 15 -10 19 -65 4
-70 -19 -7 -19 -566 0 -584 9 -10 12 -397 13 -1860 2 -2041 -2 -1910 65 -2044
38 -76 127 -171 195 -209 49 -28 59 -41 83 -104 13 -34 38 -64 66 -82 87 -54
126 -72 168 -77 27 -3 53 -9 59 -12 6 -4 47 -8 91 -10 45 -3 98 -9 118 -14 21
-6 171 -10 355 -9 268 1 539 -5 539 -12 0 -1 9 -3 20 -5 70 -14 97 -15 127 -5
18 5 62 13 98 16 35 4 71 10 80 14 8 5 31 7 50 5 87 -9 228 -6 249 5 16 9 48
10 119 3 151 -14 298 -5 352 21 25 12 47 25 48 30 2 4 19 7 38 7 19 0 34 5 34
10 0 6 7 10 15 10 9 0 18 7 21 15 4 8 10 15 15 15 16 0 75 64 97 105 11 22 33
76 47 120 14 44 30 88 36 98 26 47 52 128 60 187 10 75 13 3808 3 3940 -6 75
-4 88 10 93 14 6 16 42 16 361 0 232 -4 357 -10 361 -7 4 -10 154 -9 445 l1
438 -35 102 c-59 168 -154 260 -327 316 -51 16 -133 17 -1210 18 -635 1 -1184
-2 -1220 -6z m2393 -53 c198 -52 326 -200 351 -407 3 -26 3 -54 0 -63 -12 -31
-23 -13 -29 53 -21 200 -119 327 -298 384 -61 20 -89 20 -1237 22 l-1175 1
-75 -23 c-122 -39 -194 -89 -246 -174 -41 -66 -69 -144 -79 -216 -4 -29 -11
-52 -17 -52 -14 0 -1 102 23 169 61 175 177 272 370 310 24 5 564 9 1199 10
995 1 1164 -1 1213 -14z m-2333 -420 c23 -21 35 -74 26 -110 -11 -45 -41 -65
-97 -65 -61 0 -84 11 -104 50 -30 57 -11 116 45 139 35 15 107 7 130 -14z
m-458 -2697 c-1 -1410 -2 -2587 -2 -2615 0 -29 -4 -53 -9 -53 -5 0 -9 1091
-10 2615 -1 2117 1 2615 11 2615 11 0 13 -487 10 -2562z m3142 -64 c-1 -1444
-5 -2629 -8 -2632 -3 -3 -8 -3 -11 -1 -2 3 -5 860 -5 1904 -1 3373 -2 3355 13
3355 12 0 13 -435 11 -2626z m-114 1679 c0 -450 3 -947 7 -1105 l6 -288 -277
0 -277 0 -25 28 c-14 15 -48 61 -75 102 -28 41 -56 82 -63 90 -13 15 -22 73
-30 202 -3 37 -10 76 -16 87 -12 23 -45 129 -55 178 -7 35 -46 83 -68 83 -30
0 -231 98 -238 116 -4 11 -8 35 -8 54 -2 65 -22 72 -50 17 -13 -25 -13 -35 7
-96 12 -37 22 -83 22 -102 0 -22 9 -44 26 -64 24 -28 48 -74 42 -80 -2 -2 -33
-18 -70 -37 l-67 -35 -5 23 c-4 13 -26 37 -50 53 -58 41 -93 84 -106 132 -13
47 -6 63 19 47 31 -19 74 10 82 55 3 21 2 40 -3 43 -6 4 -8 14 -5 24 4 14 -3
19 -32 24 -31 5 -40 2 -64 -25 -15 -16 -30 -43 -34 -59 -3 -16 -12 -35 -19
-41 -12 -9 -14 -3 -14 40 0 58 10 82 49 124 l26 29 -36 -17 c-41 -19 -83 -83
-73 -109 4 -10 -1 -25 -10 -35 -10 -11 -20 -40 -24 -66 l-7 -47 -40 32 c-59
47 -89 60 -140 60 -35 0 -55 -7 -81 -26 -19 -15 -34 -30 -34 -35 0 -5 18 -20
40 -34 62 -39 62 -62 3 -274 l-15 -54 -25 44 c-14 24 -49 114 -78 199 -29 85
-65 187 -80 225 -17 43 -28 92 -29 127 0 32 -4 58 -8 58 -5 0 -8 -3 -8 -7 0
-5 -22 -31 -49 -59 -37 -39 -77 -65 -158 -104 -164 -79 -333 -150 -359 -150
-34 0 -64 -45 -64 -95 0 -23 -9 -77 -21 -121 -44 -166 -68 -279 -79 -367 -6
-51 -13 -107 -16 -124 l-5 -33 -89 0 -90 0 0 1098 c0 604 3 1102 7 1105 3 4
665 7 1470 7 l1463 0 0 -817z m-994 -887 c9 -23 -50 -113 -102 -159 -19 -16
-95 -45 -81 -30 4 3 -12 27 -34 54 l-40 48 34 25 c19 14 39 26 45 26 7 0 12 7
12 15 0 15 17 21 75 28 65 8 86 7 91 -7z m-1009 -758 l27 -62 28 62 c42 92 58
84 58 -28 0 -74 -2 -88 -15 -84 -9 4 -15 24 -17 62 l-3 57 -19 -57 c-11 -32
-24 -58 -28 -58 -5 0 -20 25 -33 55 -14 30 -28 55 -31 55 -4 0 -4 -27 -1 -60
6 -53 5 -60 -11 -60 -15 0 -17 10 -15 87 1 49 3 89 3 91 0 1 6 2 14 2 8 0 27
-27 43 -62z m1744 21 c43 -21 78 -80 79 -129 0 -43 -34 -93 -80 -117 -43 -23
-46 -23 -453 -23 -358 0 -413 2 -444 16 -112 54 -120 202 -12 256 31 16 74 18
452 18 402 0 419 -1 458 -21z m261 -481 c3 -13 4 -554 4 -1203 l-1 -1180 -32
-66 c-62 -125 -177 -200 -333 -218 -50 -6 -527 -10 -1149 -10 -1133 -1 -1144
0 -1238 47 -59 31 -123 100 -157 172 l-31 65 -3 1208 -2 1207 1469 0 1469 0 4
-22z"/>
<path d="M2190 6820 c0 -4 -7 -11 -16 -14 -8 -3 -12 -2 -9 4 3 6 -1 7 -10 4
-9 -4 -32 -27 -51 -53 -20 -25 -36 -44 -37 -42 -3 6 -87 -22 -87 -29 0 -4 -11
-12 -25 -18 -16 -8 -23 -17 -19 -27 4 -10 -3 -27 -19 -43 -14 -15 -33 -53 -43
-85 -18 -57 -18 -57 4 -87 12 -16 22 -41 22 -56 0 -26 30 -84 58 -113 9 -9 12
-26 9 -47 -4 -22 -1 -37 9 -45 12 -10 14 -5 14 29 0 51 23 48 40 -4 26 -77
120 -110 174 -61 33 30 71 100 57 105 -16 5 -13 22 4 22 22 0 35 -42 35 -114
0 -59 -2 -65 -39 -104 -35 -38 -42 -42 -83 -41 -25 1 -49 -1 -55 -4 -6 -4 -9
-31 -8 -62 2 -30 -1 -57 -5 -60 -3 -2 -27 14 -51 36 -24 22 -45 35 -47 29 -6
-17 56 -115 99 -158 22 -23 61 -51 86 -63 57 -28 82 -68 80 -128 -1 -54 6 -55
86 -14 45 22 50 23 66 9 24 -22 29 -20 24 7 -7 35 14 102 42 135 16 20 21 33
14 43 -16 26 -9 73 21 133 17 32 30 70 30 84 0 37 13 18 44 -63 15 -38 33 -81
41 -95 l14 -25 1 30 c3 73 15 70 54 -15 20 -45 39 -80 42 -77 7 7 -32 102 -92
220 l-55 108 15 47 c8 26 17 79 19 117 3 39 16 104 30 145 36 106 36 109 10
164 -14 26 -20 45 -14 41 6 -3 11 -1 11 4 0 6 -5 11 -11 11 -5 0 -15 13 -20
29 -10 29 -103 114 -146 134 -13 6 -23 15 -23 22 0 19 -129 46 -212 44 -43 -1
-78 -5 -78 -9z m55 -224 c66 -18 138 -50 151 -67 7 -8 14 -40 16 -71 3 -34 11
-65 21 -76 21 -23 6 -42 -34 -42 -14 0 -41 -11 -60 -25 -64 -46 -80 -51 -95
-31 -7 11 -15 23 -16 28 -2 5 -22 12 -44 15 -34 4 -51 0 -89 -22 -26 -16 -49
-34 -52 -41 -8 -22 -29 -16 -41 10 -7 16 -8 36 -1 58 5 19 8 59 7 89 -2 60 16
101 69 156 26 27 38 33 75 33 23 0 66 -6 93 -14z m-143 -313 c-7 -2 -17 -14
-23 -25 -10 -19 -9 -20 15 -14 15 4 26 2 26 -4 0 -5 12 -10 28 -10 l27 -1 -24
-19 c-29 -25 -8 -27 44 -6 34 15 35 14 35 -8 0 -36 -46 -76 -87 -76 -85 0
-130 90 -75 153 8 9 22 17 31 16 11 0 12 -2 3 -6z m171 -352 c5 -5 1 -12 -12
-16 -28 -9 -27 -29 4 -53 l24 -19 -22 -21 c-20 -18 -27 -19 -69 -10 -40 9 -47
15 -54 42 -13 53 -12 76 5 86 19 11 110 5 124 -9z"/>
<path d="M3129 6709 c-20 -20 -21 -26 -14 -287 4 -151 12 -272 17 -279 8 -10
85 -13 323 -13 289 0 313 1 328 18 15 16 17 51 17 285 0 263 0 266 -22 281
-19 14 -67 16 -325 16 -294 0 -304 -1 -324 -21z m576 -90 c4 -6 -3 -13 -16
-17 -23 -6 -23 -6 6 -13 l30 -6 -29 -12 c-33 -13 -346 -4 -346 10 0 15 73 22
194 16 67 -3 112 -1 101 3 -11 5 -67 9 -125 10 -182 4 -176 18 7 19 112 1 174
-3 178 -10z m5 -214 c0 -13 -36 -15 -260 -15 -224 0 -260 2 -260 15 0 13 36
15 260 15 224 0 260 -2 260 -15z"/>
<path d="M1401 6267 c-13 -13 -14 -46 -2 -66 5 -8 3 -24 -8 -43 -15 -27 -15
-30 3 -43 27 -21 69 -19 97 4 29 24 18 40 -39 57 -33 11 -34 12 -10 13 29 1
58 24 58 46 0 7 2 20 5 27 5 11 -5 15 -43 16 -27 0 -54 -4 -61 -11z"/>
<path d="M3127 5880 c3 -44 3 -80 -1 -80 -4 0 -23 34 -42 76 -19 41 -39 72
-44 69 -6 -3 -10 -12 -10 -18 0 -7 -13 -40 -30 -74 -27 -59 -28 -63 -10 -63
13 0 20 7 20 20 0 28 69 29 77 1 4 -14 16 -20 49 -23 47 -3 71 5 91 31 11 14
14 14 28 -6 20 -29 48 -29 75 -1 22 24 19 54 -8 76 -23 17 -38 15 -61 -9 l-19
-21 -22 22 c-15 15 -30 20 -46 17 -23 -4 -24 -2 -18 29 5 30 4 34 -14 34 -19
0 -20 -5 -15 -80z"/>
<path d="M3468 5622 c-102 -2 -129 -6 -140 -19 -19 -23 -24 -606 -5 -643 l13
-25 215 -3 c175 -2 218 0 234 12 19 14 20 26 17 318 -1 167 -4 313 -7 325 -3
13 -15 25 -28 27 -38 8 -166 11 -299 8z m300 -354 l-3 -273 -205 0 -205 0 -3
273 -2 272 210 0 210 0 -2 -272z"/>
<path d="M1559 3852 c-23 -7 -54 -22 -68 -32 -14 -9 -38 -25 -53 -34 -16 -9
-28 -22 -28 -29 0 -6 -9 -23 -20 -37 -20 -26 -27 -80 -10 -80 6 0 10 -9 10
-20 0 -22 20 -70 29 -70 4 0 15 -14 26 -32 17 -29 19 -30 26 -12 11 29 11 32
-8 30 -16 -1 -18 7 -15 64 5 75 30 127 69 136 13 4 48 0 76 -7 53 -15 62 -25
85 -97 11 -33 10 -33 -35 -53 -32 -14 -50 -16 -57 -9 -15 15 -70 12 -92 -6
-14 -12 -15 -14 -3 -11 11 4 16 0 15 -10 0 -8 7 -20 17 -27 15 -9 21 -8 31 6
7 10 16 15 19 11 10 -9 -3 -55 -22 -78 -16 -20 -16 -20 6 -2 11 10 24 29 27
43 9 35 24 29 32 -12 6 -32 3 -39 -30 -69 -21 -19 -44 -31 -52 -28 -9 3 -14
-2 -14 -15 0 -18 3 -20 32 -11 42 12 40 12 36 -9 -2 -11 3 -26 10 -34 10 -13
9 -18 -3 -28 -12 -10 -20 -9 -40 4 -14 9 -25 21 -25 26 0 6 -6 10 -14 10 -8 0
-16 5 -18 12 -3 8 -9 8 -21 2 -16 -9 -13 -15 19 -52 20 -24 51 -49 70 -57 29
-12 34 -19 34 -49 0 -43 12 -51 47 -33 24 13 29 13 40 -2 11 -14 12 -13 13 10
0 15 8 44 17 65 9 22 16 46 14 55 -1 8 7 35 18 60 l19 44 16 -37 c17 -39 36
-58 36 -36 1 8 6 6 15 -6 23 -30 18 -16 -16 54 -30 59 -31 65 -20 112 6 27 11
64 11 81 0 18 7 45 15 61 8 15 15 40 15 54 0 40 -38 109 -73 134 -18 12 -37
28 -42 36 -17 22 -118 31 -166 14z"/>
<path d="M2453 3276 c-222 -72 -305 -309 -174 -499 57 -83 153 -129 273 -129
122 0 239 75 290 187 35 75 32 200 -5 272 -62 120 -143 174 -267 180 -45 2
-92 -3 -117 -11z m225 -55 c55 -28 118 -103 138 -163 31 -95 -2 -242 -61 -273
-11 -5 -20 -17 -20 -25 0 -8 -25 -28 -55 -45 -46 -24 -67 -29 -125 -29 -93 -1
-139 17 -204 78 -68 64 -92 117 -93 200 -1 133 92 249 222 277 55 12 155 2
198 -20z"/>
<path d="M2505 3208 c-35 -19 -76 -62 -96 -100 -22 -43 -26 -166 -8 -228 10
-34 9 -42 -11 -70 l-23 -32 23 7 c13 4 37 8 54 9 27 1 31 6 37 39 5 30 1 44
-18 69 -16 22 -23 45 -23 76 0 43 0 43 32 40 20 -2 33 2 36 11 4 11 -2 13 -27
8 -37 -8 -38 -4 -8 48 19 34 28 40 59 43 57 5 107 -58 61 -75 -18 -6 -33 -22
-33 -34 0 -4 15 -10 34 -13 54 -10 57 -53 8 -108 -33 -38 -9 -103 34 -92 13 4
31 1 39 -6 32 -27 38 -2 31 144 -4 78 -12 143 -17 144 -5 2 -9 11 -9 21 0 22
-66 87 -103 100 -35 14 -47 13 -72 -1z"/>
<path d="M3351 3270 c-79 -29 -124 -62 -160 -116 -40 -61 -54 -111 -54 -199 0
-118 63 -219 171 -272 49 -24 69 -28 142 -28 75 0 91 3 136 29 78 42 117 78
149 137 28 50 30 62 30 154 0 97 -1 102 -33 152 -66 102 -146 151 -260 159
-51 3 -80 0 -121 -16z m202 -46 c43 -15 60 -29 135 -119 30 -36 30 -63 0 -35
-24 22 -28 23 -46 12 -10 -7 -10 -19 -1 -60 12 -51 13 -52 51 -52 21 0 38 -4
38 -10 0 -5 -17 -10 -38 -10 -37 0 -38 -1 -54 -52 -9 -29 -15 -54 -14 -56 2
-1 17 3 34 9 22 7 35 21 44 45 15 43 30 45 18 3 -15 -50 -37 -78 -59 -72 -26
7 -69 -18 -116 -67 l-40 -42 40 17 c22 9 57 32 77 52 42 41 65 38 27 -3 -34
-37 -104 -76 -131 -73 -13 1 -35 -1 -51 -6 -40 -11 -92 2 -129 33 -18 15 -29
21 -24 15 17 -30 -23 -10 -61 30 -78 79 -102 178 -67 280 45 133 222 211 367
161z"/>
<path d="M3275 2928 c19 -61 38 -87 76 -102 73 -30 79 -26 79 54 l0 70 -30 0
c-29 0 -30 -1 -30 -50 0 -27 -4 -50 -10 -50 -11 0 -13 16 -10 68 1 31 1 32
-40 32 -38 0 -41 -2 -35 -22z"/>
<path d="M1428 3235 c-9 -16 -56 -46 -142 -90 -71 -36 -135 -65 -143 -65 -7 0
-17 -10 -22 -22 -15 -38 -31 -164 -31 -238 0 -63 3 -73 30 -103 51 -59 56 -60
427 -55 293 4 342 6 370 21 75 40 132 169 133 298 0 125 -3 133 -66 153 -49
15 -54 20 -54 46 0 37 -16 47 -30 20 -8 -16 -8 -30 -1 -52 6 -17 11 -40 11
-52 0 -12 6 -33 14 -48 13 -24 12 -28 -8 -47 -12 -12 -26 -21 -32 -21 -14 0
-94 87 -94 103 0 7 11 19 24 27 14 7 27 24 31 37 7 30 7 30 -26 38 -24 6 -29
2 -45 -34 -9 -22 -21 -38 -25 -35 -5 3 -14 -4 -20 -14 -12 -19 -13 -18 -53 4
-51 29 -80 30 -107 3 l-21 -21 22 -12 c41 -20 46 -39 25 -100 -11 -31 -22 -56
-25 -56 -16 0 -124 268 -124 308 0 38 -2 39 -18 7z"/>
<path d="M1211 2508 c-27 -10 -51 -48 -51 -81 0 -40 49 -87 92 -88 18 0 183 0
367 1 365 1 367 1 391 60 10 24 10 36 -1 61 -23 56 -39 58 -428 56 -194 -1
-360 -5 -370 -9z"/>
<path d="M2175 2435 l0 -65 33 0 c17 0 32 5 32 10 0 6 -9 10 -20 10 -29 0 -27
37 3 43 l22 4 -22 2 c-32 2 -30 31 2 31 33 0 62 -51 40 -70 -8 -7 -15 -19 -15
-28 0 -12 4 -12 21 4 24 22 52 10 57 -25 4 -27 32 -28 32 -1 0 11 6 20 14 20
8 0 21 7 29 15 13 13 16 13 27 0 14 -17 50 -20 50 -5 0 6 -7 10 -15 10 -8 0
-15 5 -15 10 0 6 9 10 19 10 27 0 34 15 15 34 -20 20 -29 20 -49 0 -15 -15
-17 -15 -35 1 -10 9 -29 15 -42 13 -20 -3 -23 -8 -21 -42 2 -34 1 -37 -13 -25
-11 9 -14 22 -10 42 5 26 4 28 -9 17 -13 -10 -19 -9 -35 5 -11 10 -20 24 -20
32 0 8 -13 13 -38 13 l-37 0 0 -65z"/>
<path d="M3390 2181 l0 -31 -64 0 c-55 0 -66 3 -79 23 -13 18 -16 19 -16 5 -1
-11 -12 -20 -28 -24 -42 -11 -70 -32 -83 -64 -15 -37 -7 -63 31 -95 l31 -25
269 0 c299 0 315 3 339 61 16 37 3 69 -41 101 -23 18 -42 20 -166 19 -152 -2
-173 2 -173 29 0 11 -4 22 -10 25 -6 4 -10 -7 -10 -24z"/>
<path d="M1384 1696 c-94 -41 -102 -176 -13 -222 52 -26 97 -18 140 25 32 32
39 46 39 77 0 51 -32 102 -75 120 -42 17 -51 17 -91 0z"/>
<path d="M1877 1679 c-37 -29 -54 -88 -38 -138 30 -103 165 -110 216 -11 19
37 19 64 0 104 -30 63 -125 88 -178 45z m130 -40 c18 -16 17 -89 -3 -117 -18
-27 -41 -28 -89 -4 -35 16 -36 19 -32 62 6 55 37 85 81 76 16 -3 35 -11 43
-17z"/>
<path d="M2409 1671 c-25 -26 -29 -37 -29 -86 0 -51 3 -60 34 -91 95 -95 237
18 186 150 -12 34 -59 56 -115 56 -38 0 -52 -5 -76 -29z"/>
<path d="M2995 1676 c-10 -14 -22 -23 -31 -19 -9 3 -14 -2 -14 -16 0 -11 -9
-26 -20 -33 -26 -17 -25 -32 4 -52 16 -10 23 -22 20 -33 -7 -25 60 -57 77 -37
6 7 27 14 47 16 32 3 37 6 35 25 -2 14 5 28 17 35 23 15 26 36 6 44 -8 3 -16
14 -19 25 -4 13 -14 19 -34 19 -19 0 -31 7 -38 22 -14 31 -31 33 -50 4z m45
-22 c0 -14 11 -18 38 -15 6 1 12 -7 12 -19 0 -13 7 -20 19 -20 31 0 35 -19 6
-26 -22 -5 -26 -11 -20 -31 5 -23 3 -24 -25 -21 -18 2 -34 -3 -39 -11 -6 -9
-18 -11 -35 -7 -19 5 -26 13 -26 31 0 18 -8 29 -27 36 l-28 11 23 11 c12 5 22
18 22 29 0 10 7 18 18 18 9 0 23 9 30 20 13 22 32 19 32 -6z"/>
<path d="M3508 1687 c-40 -18 -66 -46 -78 -83 -17 -49 17 -106 75 -129 39 -15
46 -15 84 1 46 18 49 24 21 41 -22 15 -50 7 -50 -13 0 -22 -27 -16 -33 7 -5
18 -8 19 -26 7 -24 -15 -39 -4 -22 16 16 19 6 36 -20 36 -11 0 -19 7 -19 16 0
11 6 15 20 11 27 -7 36 11 14 27 -9 7 -14 18 -10 24 9 15 36 16 36 2 0 -5 9
-10 20 -10 12 0 17 5 14 14 -9 23 14 28 26 5 10 -17 18 -20 46 -14 37 6 44 -1
17 -20 -21 -15 -8 -38 18 -30 13 4 19 2 19 -9 0 -10 -9 -16 -24 -16 -32 0 -41
-26 -15 -41 17 -8 23 -7 35 8 18 24 17 49 -3 94 -13 31 -25 41 -64 53 -26 9
-49 16 -51 15 -2 0 -15 -6 -30 -12z"/>
<path d="M4682 6146 c-11 -15 -30 -26 -44 -26 -13 0 -32 -6 -42 -13 -17 -12
-18 -24 -13 -108 4 -52 7 -100 7 -106 0 -10 31 -13 120 -13 l120 0 0 120 c0
98 -3 120 -14 120 -8 0 -18 -4 -21 -10 -12 -19 -32 -10 -46 22 -18 42 -41 46
-67 14z"/>
<path d="M4589 5833 c-1 -5 -1 -746 0 -1648 1 -902 1 -1700 1 -1772 l0 -133
104 0 c57 0 111 3 120 6 15 6 16 172 16 1780 l0 1774 -120 0 c-66 0 -120 -3
-121 -7z m146 -243 l0 -135 -25 0 c-23 0 -26 5 -32 55 -11 95 -9 195 4 208 7
7 22 11 33 10 19 -3 20 -10 20 -138z m-1 -286 c22 -22 23 -216 1 -234 -16 -13
-50 -6 -41 9 4 5 2 11 -3 13 -11 4 -18 199 -7 216 10 17 32 15 50 -4z"/>
<path d="M4584 2236 c-10 -25 5 -154 23 -198 17 -42 65 -88 92 -88 27 0 68 36
96 83 18 31 26 64 31 125 l7 82 -106 0 c-58 0 -112 3 -121 6 -10 4 -18 0 -22
-10z"/>
</g>
</svg>
