<?xml version="1.0" standalone="no"?>
<!DOCTYPE svg PUBLIC "-//W3C//DTD SVG 20010904//EN"
 "http://www.w3.org/TR/2001/REC-SVG-20010904/DTD/svg10.dtd">
<svg version="1.0" xmlns="http://www.w3.org/2000/svg"
 width="512.000000pt" height="512.000000pt" viewBox="0 0 512.000000 512.000000"
 preserveAspectRatio="xMidYMid meet">

<g transform="translate(0.000000,512.000000) scale(0.100000,-0.100000)"
fill="#2a3849" stroke="none">
<path d="M2460 4918 c-231 -172 -473 -402 -593 -563 -89 -120 -170 -280 -192
-380 -21 -95 -16 -268 13 -407 10 -49 17 -88 15 -88 -2 0 -22 12 -46 27 -62
39 -212 107 -292 133 -88 28 -252 31 -368 6 -250 -54 -595 -225 -900 -445 -48
-34 -87 -68 -87 -75 0 -25 88 -271 140 -392 120 -281 245 -480 394 -630 85
-84 115 -107 186 -142 100 -49 204 -77 344 -94 l101 -12 -105 -105 c-217 -218
-275 -365 -273 -691 2 -239 54 -528 149 -820 l36 -113 201 6 c465 14 829 99
1044 245 113 76 217 215 296 393 17 38 34 69 37 69 3 0 20 -31 37 -69 48 -108
123 -229 181 -293 193 -209 593 -328 1159 -345 l201 -6 36 113 c94 290 147
584 149 825 2 321 -57 470 -274 686 l-106 106 70 7 c95 9 238 39 312 66 231
86 459 370 643 801 52 122 142 371 142 394 0 33 -340 253 -555 360 -258 127
-434 178 -620 177 -86 0 -125 -4 -180 -22 -80 -26 -230 -94 -292 -133 -24 -15
-44 -27 -46 -27 -2 0 4 39 14 88 29 136 36 312 15 406 -49 220 -268 515 -575
776 -107 91 -300 240 -311 240 -3 0 -48 -32 -100 -72z m282 -1648 c370 -69
668 -348 770 -720 20 -74 23 -107 22 -250 -1 -189 -15 -261 -82 -404 -54 -115
-112 -198 -201 -287 -126 -126 -271 -209 -451 -257 -81 -21 -117 -25 -240 -25
-123 0 -159 4 -240 25 -180 48 -320 128 -449 256 -128 127 -215 278 -262 452
-20 72 -23 110 -23 245 0 135 3 173 23 245 55 207 172 387 335 518 131 105
327 190 491 211 77 11 225 6 307 -9z"/>
</g>
</svg>
