<?xml version="1.0" standalone="no"?>
<!DOCTYPE svg PUBLIC "-//W3C//DTD SVG 20010904//EN"
 "http://www.w3.org/TR/2001/REC-SVG-20010904/DTD/svg10.dtd">
<svg version="1.0" xmlns="http://www.w3.org/2000/svg"
 width="512.000000pt" height="512.000000pt" viewBox="0 0 512.000000 512.000000"
 preserveAspectRatio="xMidYMid meet">

<g transform="translate(0.000000,512.000000) scale(0.100000,-0.100000)"
fill="#2a3849" stroke="none">
<path d="M2493 5035 c-29 -20 -194 -268 -242 -363 -50 -100 -156 -403 -177
-505 -22 -107 -14 -354 15 -478 47 -203 124 -378 250 -567 97 -145 174 -232
205 -232 27 0 75 50 153 160 158 223 244 403 299 623 35 140 44 369 20 513
-43 252 -183 547 -375 786 -63 79 -102 95 -148 63z"/>
<path d="M510 4078 c-14 -8 -26 -21 -28 -31 -4 -21 68 -270 115 -397 163 -438
455 -729 863 -858 184 -58 448 -102 616 -102 66 0 86 4 105 19 l24 19 -23 114
c-91 450 -337 830 -668 1032 -150 91 -369 162 -588 190 -176 23 -386 29 -416
14z"/>
<path d="M4230 4070 c-186 -22 -329 -50 -436 -86 -431 -144 -744 -537 -889
-1118 -30 -119 -27 -152 11 -166 84 -32 497 21 709 91 325 108 597 335 760
634 124 226 236 601 195 650 -17 20 -148 19 -350 -5z"/>
<path d="M3700 2599 c-233 -29 -554 -129 -682 -214 -71 -47 -52 -88 130 -277
184 -191 329 -295 570 -406 136 -63 195 -78 377 -93 305 -24 503 13 860 163
132 56 150 66 153 88 2 20 -25 57 -131 175 -277 312 -550 485 -862 550 -96 20
-311 27 -415 14z"/>
<path d="M992 2585 c-336 -61 -644 -260 -910 -590 -74 -92 -85 -115 -72 -151
11 -29 63 -54 270 -132 228 -85 407 -122 600 -122 418 0 812 213 1154 623 84
101 78 143 -27 201 -132 73 -355 141 -558 170 -128 19 -355 19 -457 1z"/>
<path d="M2186 1981 c-669 -345 -969 -887 -857 -1546 12 -71 28 -174 37 -229
15 -104 31 -136 67 -136 11 0 70 26 132 58 419 221 701 520 814 864 85 258 92
596 20 933 -18 85 -40 125 -70 125 -6 0 -70 -31 -143 -69z"/>
<path d="M2722 2027 c-6 -6 -29 -118 -52 -247 -46 -259 -48 -331 -14 -558 69
-470 368 -837 895 -1102 91 -46 132 -51 153 -18 8 14 25 115 41 248 44 363 35
554 -35 773 -110 342 -384 626 -825 858 -114 60 -144 69 -163 46z"/>
</g>
</svg>
