<?xml version="1.0" standalone="no"?>
<!DOCTYPE svg PUBLIC "-//W3C//DTD SVG 20010904//EN"
 "http://www.w3.org/TR/2001/REC-SVG-20010904/DTD/svg10.dtd">
<svg version="1.0" xmlns="http://www.w3.org/2000/svg"
 width="512.000000pt" height="512.000000pt" viewBox="0 0 512.000000 512.000000"
 preserveAspectRatio="xMidYMid meet">

<g transform="translate(0.000000,512.000000) scale(0.100000,-0.100000)"
fill="#2a3849" stroke="none">
<path d="M2525 5099 c-108 -58 -301 -213 -393 -317 -172 -194 -276 -395 -328
-632 -29 -129 -26 -456 4 -596 41 -189 114 -370 207 -514 60 -93 159 -214 210
-255 l43 -36 48 29 c70 41 138 62 225 69 l76 6 17 52 c24 76 107 234 180 344
112 167 267 325 418 427 37 24 69 48 72 52 15 25 38 226 38 333 0 388 -163
689 -503 931 -87 62 -214 128 -247 128 -15 0 -45 -10 -67 -21z"/>
<path d="M712 3660 c-173 -22 -392 -95 -568 -191 -95 -51 -129 -82 -141 -127
-15 -62 35 -337 93 -511 75 -225 182 -400 344 -561 175 -176 354 -278 562
-321 87 -18 125 -20 248 -16 172 7 290 29 480 93 122 41 289 115 332 148 14
10 15 19 8 52 -14 57 -12 150 4 218 l14 59 -98 96 c-112 110 -195 219 -275
360 -59 104 -124 255 -151 349 -20 68 -35 87 -139 165 -100 75 -235 140 -345
167 -100 23 -265 32 -368 20z"/>
<path d="M3905 3625 c-194 -30 -393 -112 -540 -222 -190 -141 -368 -379 -452
-601 l-23 -63 49 -56 c27 -30 63 -83 79 -117 27 -54 37 -86 56 -177 6 -26 8
-26 113 -33 231 -15 397 -57 588 -150 72 -35 161 -87 200 -115 67 -49 72 -51
120 -45 197 22 365 85 502 188 84 64 201 190 267 290 103 154 235 463 252 591
9 59 -13 94 -104 167 -352 280 -740 401 -1107 343z"/>
<path d="M2525 2541 c-164 -41 -229 -227 -123 -355 41 -50 98 -76 168 -76 136
0 236 117 216 253 -17 114 -151 205 -261 178z"/>
<path d="M2944 1983 c-41 -45 -92 -90 -118 -104 -38 -19 -46 -28 -41 -44 31
-103 65 -256 74 -330 30 -246 2 -558 -71 -788 l-21 -68 59 -87 c32 -48 97
-127 143 -175 187 -194 380 -302 643 -359 194 -41 588 -25 679 29 40 24 55 63
68 173 49 438 -4 830 -154 1131 -153 309 -387 526 -677 628 -120 42 -231 61
-383 67 l-130 5 -71 -78z"/>
<path d="M2205 1914 c-11 -9 -74 -43 -140 -75 -183 -89 -437 -167 -628 -194
-64 -9 -200 -100 -322 -216 -166 -160 -260 -324 -317 -559 -21 -87 -17 -403 6
-510 25 -118 65 -241 84 -263 25 -28 41 -35 138 -56 348 -78 710 -24 982 145
284 177 451 413 529 744 33 143 43 437 19 582 -15 90 -66 270 -83 293 -5 6
-34 19 -67 30 -32 10 -83 36 -113 57 -61 43 -61 43 -88 22z"/>
</g>
</svg>
