<?xml version="1.0" standalone="no"?>
<!DOCTYPE svg PUBLIC "-//W3C//DTD SVG 20010904//EN"
 "http://www.w3.org/TR/2001/REC-SVG-20010904/DTD/svg10.dtd">
<svg version="1.0" xmlns="http://www.w3.org/2000/svg"
 width="512.000000pt" height="512.000000pt" viewBox="0 0 512.000000 512.000000"
 preserveAspectRatio="xMidYMid meet">

<g transform="translate(0.000000,512.000000) scale(0.100000,-0.100000)"
fill="#2a3849" stroke="none">
<path d="M2448 5077 c-512 -268 -840 -749 -865 -1269 -3 -71 -9 -128 -13 -128
-4 0 -41 16 -82 35 -305 141 -698 122 -1079 -52 -214 -98 -370 -200 -395 -258
-17 -41 -18 -148 -3 -283 33 -305 131 -588 285 -820 72 -107 269 -307 375
-379 90 -62 232 -134 309 -158 30 -9 61 -18 68 -21 9 -3 -3 -23 -37 -60 -321
-351 -404 -840 -230 -1359 37 -113 68 -173 100 -197 61 -45 289 -102 479 -118
255 -23 536 31 758 144 144 73 325 219 432 347 l47 57 37 -48 c92 -121 273
-269 426 -349 215 -112 404 -156 680 -155 199 0 310 15 470 61 94 27 122 42
146 78 58 88 102 566 75 825 -31 305 -120 581 -255 789 -25 40 -46 75 -46 79
0 5 21 14 48 20 215 56 469 247 627 472 126 179 241 450 296 695 33 149 30
159 -94 280 -255 249 -566 410 -892 462 -167 26 -434 11 -578 -33 -16 -5 -17
1 -11 78 4 46 1 132 -5 191 -45 410 -266 750 -636 977 -105 65 -251 131 -304
137 -41 5 -56 0 -133 -40z m224 -321 c281 -160 456 -372 525 -635 30 -114 36
-304 15 -442 l-14 -87 -71 -48 c-111 -74 -281 -251 -365 -377 -71 -106 -153
-264 -167 -319 -6 -25 -12 -28 -49 -28 -58 0 -150 -25 -209 -58 l-49 -26 -70
72 c-166 174 -281 415 -323 677 -19 116 -19 329 0 438 41 238 163 457 356 643
120 115 287 234 329 234 8 0 50 -20 92 -44z m-1463 -1266 c103 -21 208 -67
298 -129 111 -76 128 -97 163 -201 75 -224 180 -399 338 -561 l104 -108 -12
-57 c-7 -31 -10 -93 -9 -138 l4 -81 -85 -43 c-107 -53 -326 -125 -449 -146
-117 -20 -297 -21 -389 -1 -270 56 -530 260 -685 537 -86 154 -155 381 -177
586 -15 133 -28 114 142 202 273 140 527 188 757 140z m2871 -21 c209 -30 447
-145 652 -316 89 -74 86 -52 31 -228 -143 -451 -412 -734 -761 -801 -115 -22
-125 -20 -217 41 -192 128 -416 201 -676 220 l-85 6 -12 58 c-16 75 -54 150
-107 209 l-44 48 33 81 c63 157 195 339 325 448 240 202 529 281 861 234z
m-1463 -960 c65 -24 106 -87 106 -164 1 -126 -109 -212 -218 -171 -52 20 -90
61 -106 115 -41 138 89 269 218 220z m642 -445 c479 -97 808 -509 871 -1093
15 -129 8 -415 -13 -546 l-12 -80 -90 -17 c-136 -27 -339 -33 -460 -15 -322
50 -566 204 -754 476 l-48 71 19 57 c43 131 60 244 65 440 6 210 -2 297 -44
456 -14 54 -24 99 -22 101 2 2 25 17 50 34 26 17 66 53 89 79 23 27 51 51 63
55 31 10 199 -1 286 -18z m-845 -176 c45 -14 63 -46 97 -175 31 -113 38 -392
14 -534 -40 -244 -142 -442 -298 -585 -273 -248 -610 -338 -997 -264 -147 28
-145 27 -174 117 -143 453 -43 865 273 1129 92 77 196 144 223 144 30 0 218
43 301 69 108 33 267 98 341 139 l69 39 56 -34 c31 -18 73 -39 95 -45z"/>
</g>
</svg>
